<?xml version="1.0" encoding="UTF-8"?>
<!DOCTYPE svg PUBLIC "-//W3C//DTD SVG 1.1//EN" "http://www.w3.org/Graphics/SVG/1.1/DTD/svg11.dtd">
<svg xmlns="http://www.w3.org/2000/svg" version="1.1" width="523px" height="159px" style="shape-rendering:geometricPrecision; text-rendering:geometricPrecision; image-rendering:optimizeQuality; fill-rule:evenodd; clip-rule:evenodd" xmlns:xlink="http://www.w3.org/1999/xlink">
<g><path style="opacity:1" fill="#212529" d="M -0.5,-0.5 C 173.833,-0.5 348.167,-0.5 522.5,-0.5C 522.5,52.5 522.5,105.5 522.5,158.5C 348.167,158.5 173.833,158.5 -0.5,158.5C -0.5,105.5 -0.5,52.5 -0.5,-0.5 Z"/></g>
<g><path style="opacity:1" fill="#eaeced" d="M 86.5,51.5 C 87.1752,58.4755 87.6752,65.4755 88,72.5C 88.6708,73.2524 89.5041,73.5858 90.5,73.5C 91.8068,74.1534 93.1401,74.8201 94.5,75.5C 97.0662,73.401 99.7328,73.0677 102.5,74.5C 102.664,77.1873 102.497,79.854 102,82.5C 101.329,81.7476 100.496,81.4142 99.5,81.5C 96.9823,80.7362 94.649,79.7362 92.5,78.5C 90.9674,76.7549 88.9674,75.7549 86.5,75.5C 85.8333,75.1667 85.1667,74.8333 84.5,74.5C 84.6663,67.825 84.4996,61.1583 84,54.5C 83.7216,53.5842 83.2216,52.9175 82.5,52.5C 81.1667,49.8333 79.8333,49.8333 78.5,52.5C 77.7784,52.9175 77.2784,53.5842 77,54.5C 76.5004,61.1583 76.3337,67.825 76.5,74.5C 69.2819,78.0259 62.1152,81.6926 55,85.5C 54.5172,86.448 54.3505,87.448 54.5,88.5C 55.0968,89.1386 55.9302,89.472 57,89.5C 63.4319,88.1401 69.9319,87.4735 76.5,87.5C 76.2594,89.8984 76.9261,91.8984 78.5,93.5C 78.7214,96.2788 78.388,98.9455 77.5,101.5C 76.9569,101.56 76.6236,101.893 76.5,102.5C 79.3092,103.8 81.9759,103.8 84.5,102.5C 84.1667,101.833 83.8333,101.167 83.5,100.5C 83.6159,97.1401 83.9492,93.8067 84.5,90.5C 84.5,89.1667 84.5,87.8333 84.5,86.5C 86.5,86.5 88.5,86.5 90.5,86.5C 90.6107,87.1174 90.944,87.6174 91.5,88C 94.146,88.4974 96.8127,88.6641 99.5,88.5C 101.717,89.3686 104.05,89.702 106.5,89.5C 106.88,87.302 106.213,85.6354 104.5,84.5C 104.821,82.9519 105.821,82.2852 107.5,82.5C 108.167,82.8333 108.833,83.1667 109.5,83.5C 109.5,86.5 109.5,89.5 109.5,92.5C 106.615,92.1936 103.948,92.5269 101.5,93.5C 100.952,96.0838 99.285,97.0838 96.5,96.5C 96.7135,94.8561 96.3802,93.3561 95.5,92C 92.6074,90.8512 89.6074,90.3512 86.5,90.5C 86.3354,93.5184 86.502,96.5184 87,99.5C 88.1545,100.743 89.4878,101.743 91,102.5C 91.49,103.793 91.6567,105.127 91.5,106.5C 84.1667,106.5 76.8333,106.5 69.5,106.5C 69.5713,103.348 70.9046,101.014 73.5,99.5C 74.4767,96.7131 74.81,93.7131 74.5,90.5C 71.2869,90.19 68.2869,90.5233 65.5,91.5C 64.7659,92.7079 64.4326,94.0413 64.5,95.5C 63.2921,96.2341 61.9587,96.5674 60.5,96.5C 59.8902,95.609 59.5569,94.609 59.5,93.5C 57.0521,92.5269 54.3854,92.1936 51.5,92.5C 50.8075,88.2473 51.8075,84.5807 54.5,81.5C 55.2905,80.5987 56.2905,79.9321 57.5,79.5C 58.224,77.7816 58.8906,75.9483 59.5,74C 62.1303,73.1554 64.4636,73.6554 66.5,75.5C 68.5976,75.0428 70.2642,74.0428 71.5,72.5C 72.1666,66.3208 72.8332,59.9875 73.5,53.5C 75.0832,48.4067 78.4165,46.5733 83.5,48C 84.7101,49.0391 85.7101,50.2058 86.5,51.5 Z"/></g>
<g><path style="opacity:1" fill="#282c30" d="M 82.5,52.5 C 83.0221,59.9885 83.6888,67.3218 84.5,74.5C 85.1667,74.8333 85.8333,75.1667 86.5,75.5C 88.0326,77.2451 90.0326,78.2451 92.5,78.5C 94.649,79.7362 96.9823,80.7362 99.5,81.5C 100.659,83.2503 102.326,84.2503 104.5,84.5C 106.213,85.6354 106.88,87.302 106.5,89.5C 104.05,89.702 101.717,89.3686 99.5,88.5C 96.7273,87.3428 93.7273,86.6761 90.5,86.5C 88.5,86.5 86.5,86.5 84.5,86.5C 84.5,87.8333 84.5,89.1667 84.5,90.5C 82.4686,93.7076 82.1353,97.041 83.5,100.5C 83.8333,101.167 84.1667,101.833 84.5,102.5C 81.9407,102.802 79.6074,102.468 77.5,101.5C 78.388,98.9455 78.7214,96.2788 78.5,93.5C 78.7406,91.1016 78.0739,89.1016 76.5,87.5C 74.6965,86.838 72.6965,86.5046 70.5,86.5C 65.1306,86.9508 59.7973,87.6175 54.5,88.5C 54.3505,87.448 54.5172,86.448 55,85.5C 62.1152,81.6926 69.2819,78.0259 76.5,74.5C 77.3112,67.3218 77.9779,59.9885 78.5,52.5C 79.8333,49.8333 81.1667,49.8333 82.5,52.5 Z"/></g>
<g><path style="opacity:1" fill="#707375" d="M 330.5,56.5 C 341.654,55.5052 352.988,55.1719 364.5,55.5C 364.5,57.8333 364.5,60.1667 364.5,62.5C 359.833,62.5 355.167,62.5 350.5,62.5C 354.298,61.5166 358.298,61.1832 362.5,61.5C 363.451,60.0813 363.784,58.4147 363.5,56.5C 352.5,56.5 341.5,56.5 330.5,56.5 Z"/></g>
<g><path style="opacity:1" fill="#c2c4c5" d="M 330.5,57.5 C 330.5,57.1667 330.5,56.8333 330.5,56.5C 341.5,56.5 352.5,56.5 363.5,56.5C 363.784,58.4147 363.451,60.0813 362.5,61.5C 362.5,60.1667 362.5,58.8333 362.5,57.5C 351.833,57.5 341.167,57.5 330.5,57.5 Z"/></g>
<g><path style="opacity:1" fill="#7b7e80" d="M 145.5,56.5 C 142.325,55.9093 139.991,56.9093 138.5,59.5C 138.33,58.1779 138.663,57.0113 139.5,56C 141.712,55.2109 143.712,55.3775 145.5,56.5 Z"/></g>
<g><path style="opacity:1" fill="#edeeef" d="M 145.5,56.5 C 146.338,56.8417 146.672,57.5084 146.5,58.5C 147.036,61.5547 147.869,64.5547 149,67.5C 149.377,68.9423 150.21,69.9423 151.5,70.5C 151.796,72.403 152.463,74.0697 153.5,75.5C 153.41,78.1522 154.076,80.4855 155.5,82.5C 156.738,84.2143 157.405,86.2143 157.5,88.5C 157.66,90.153 158.326,91.4863 159.5,92.5C 159.261,94.4672 159.594,96.3005 160.5,98C 158.402,98.6776 156.402,98.5109 154.5,97.5C 153.331,94.659 152.331,91.659 151.5,88.5C 146.015,87.3483 140.349,87.1816 134.5,88C 133.663,89.0113 133.33,90.1779 133.5,91.5C 132.232,93.9052 131.565,96.5718 131.5,99.5C 129.167,99.5 126.833,99.5 124.5,99.5C 124.928,96.2154 125.928,93.2154 127.5,90.5C 129.163,88.5615 129.829,86.2282 129.5,83.5C 130.833,80.1667 132.167,76.8333 133.5,73.5C 134.674,72.4863 135.34,71.153 135.5,69.5C 136.13,65.9523 137.13,62.6189 138.5,59.5C 139.991,56.9093 142.325,55.9093 145.5,56.5 Z"/></g>
<g><path style="opacity:1" fill="#787c7e" d="M 254.5,57.5 C 252.5,57.5 250.5,57.5 248.5,57.5C 247.504,71.3234 247.171,85.3234 247.5,99.5C 246.339,85.3393 246.173,71.0059 247,56.5C 248.062,55.9032 249.228,55.5698 250.5,55.5C 252.355,55.3402 253.688,56.0069 254.5,57.5 Z"/></g>
<g><path style="opacity:1" fill="#f1f2f3" d="M 248.5,57.5 C 250.5,57.5 252.5,57.5 254.5,57.5C 256.5,60.5 258.5,63.5 260.5,66.5C 260.427,68.0269 261.094,69.0269 262.5,69.5C 266.52,74.5322 270.187,79.8656 273.5,85.5C 273.821,87.0481 274.821,87.7148 276.5,87.5C 276.5,77.5 276.5,67.5 276.5,57.5C 278.167,57.5 279.833,57.5 281.5,57.5C 281.5,71.5 281.5,85.5 281.5,99.5C 279.208,99.7564 277.041,99.4231 275,98.5C 268.25,89.2656 261.75,79.9323 255.5,70.5C 255.167,69.5 254.5,68.8333 253.5,68.5C 252.506,78.3194 252.173,88.3194 252.5,98.5C 251.167,98.5 249.833,98.5 248.5,98.5C 248.5,84.8333 248.5,71.1667 248.5,57.5 Z"/></g>
<g><path style="opacity:1" fill="#c2c4c5" d="M 281.5,57.5 C 279.833,57.5 278.167,57.5 276.5,57.5C 276.5,67.5 276.5,77.5 276.5,87.5C 274.821,87.7148 273.821,87.0481 273.5,85.5C 274.117,85.6107 274.617,85.944 275,86.5C 275.5,76.5056 275.666,66.5056 275.5,56.5C 277.735,56.2053 279.735,56.5386 281.5,57.5 Z"/></g>
<g><path style="opacity:1" fill="#f2f3f4" d="M 330.5,57.5 C 341.167,57.5 351.833,57.5 362.5,57.5C 362.5,58.8333 362.5,60.1667 362.5,61.5C 358.298,61.1832 354.298,61.5166 350.5,62.5C 349.505,74.3217 349.172,86.3217 349.5,98.5C 347.833,98.5 346.167,98.5 344.5,98.5C 344.828,86.3217 344.495,74.3217 343.5,62.5C 339.167,62.5 334.833,62.5 330.5,62.5C 330.5,60.8333 330.5,59.1667 330.5,57.5 Z"/></g>
<g><path style="opacity:1" fill="#bdbec0" d="M 470.5,56.5 C 470.833,56.5 471.167,56.5 471.5,56.5C 471.5,70.5 471.5,84.5 471.5,98.5C 473.167,98.5 474.833,98.5 476.5,98.5C 476.5,98.8333 476.5,99.1667 476.5,99.5C 474.5,99.5 472.5,99.5 470.5,99.5C 470.5,85.1667 470.5,70.8333 470.5,56.5 Z"/></g>
<g><path style="opacity:1" fill="#f6f7f8" d="M 471.5,56.5 C 473.167,56.5 474.833,56.5 476.5,56.5C 476.5,70.5 476.5,84.5 476.5,98.5C 474.833,98.5 473.167,98.5 471.5,98.5C 471.5,84.5 471.5,70.5 471.5,56.5 Z"/></g>
<g><path style="opacity:1" fill="#6f7275" d="M 470.5,56.5 C 472.607,55.5318 474.941,55.1984 477.5,55.5C 477.829,70.3428 477.496,85.0095 476.5,99.5C 476.5,99.1667 476.5,98.8333 476.5,98.5C 476.5,84.5 476.5,70.5 476.5,56.5C 474.833,56.5 473.167,56.5 471.5,56.5C 471.167,56.5 470.833,56.5 470.5,56.5 Z"/></g>
<g><path style="opacity:1" fill="#6c6f71" d="M 78.5,52.5 C 77.9779,59.9885 77.3112,67.3218 76.5,74.5C 76.3337,67.825 76.5004,61.1583 77,54.5C 77.2784,53.5842 77.7784,52.9175 78.5,52.5 Z"/></g>
<g><path style="opacity:1" fill="#585b5e" d="M 82.5,52.5 C 83.2216,52.9175 83.7216,53.5842 84,54.5C 84.4996,61.1583 84.6663,67.825 84.5,74.5C 83.6888,67.3218 83.0221,59.9885 82.5,52.5 Z"/></g>
<g><path style="opacity:1" fill="#949799" d="M 86.5,51.5 C 87.2216,51.9175 87.7216,52.5842 88,53.5C 88.3333,59.5 88.6667,65.5 89,71.5C 89.7172,72.0442 90.2172,72.7109 90.5,73.5C 89.5041,73.5858 88.6708,73.2524 88,72.5C 87.6752,65.4755 87.1752,58.4755 86.5,51.5 Z"/></g>
<g><path style="opacity:1" fill="#b2b4b6" d="M 146.5,58.5 C 148.919,62.0643 150.586,66.0643 151.5,70.5C 150.21,69.9423 149.377,68.9423 149,67.5C 147.869,64.5547 147.036,61.5547 146.5,58.5 Z"/></g>
<g><path style="opacity:1" fill="#828688" d="M 216.5,59.5 C 216.5,59.8333 216.5,60.1667 216.5,60.5C 216.5,63.1667 216.5,65.8333 216.5,68.5C 215.167,68.5 213.833,68.5 212.5,68.5C 212.5,69.8333 212.5,71.1667 212.5,72.5C 211.549,71.0813 211.216,69.4147 211.5,67.5C 212.833,67.5 214.167,67.5 215.5,67.5C 215.194,64.6146 215.527,61.9479 216.5,59.5 Z"/></g>
<g><path style="opacity:1" fill="#eff0f1" d="M 216.5,60.5 C 218.167,60.5 219.833,60.5 221.5,60.5C 221.5,63.1667 221.5,65.8333 221.5,68.5C 223.5,68.5 225.5,68.5 227.5,68.5C 227.5,69.8333 227.5,71.1667 227.5,72.5C 225.585,72.2155 223.919,72.5489 222.5,73.5C 222.334,79.8421 222.5,86.1754 223,92.5C 224.049,94.1066 225.549,94.7733 227.5,94.5C 227.5,95.8333 227.5,97.1667 227.5,98.5C 224.43,98.6323 221.43,98.299 218.5,97.5C 218.217,96.7109 217.717,96.0442 217,95.5C 216.5,88.1742 216.334,80.8409 216.5,73.5C 214.901,73.7678 213.568,73.4345 212.5,72.5C 212.5,71.1667 212.5,69.8333 212.5,68.5C 213.833,68.5 215.167,68.5 216.5,68.5C 216.5,65.8333 216.5,63.1667 216.5,60.5 Z"/></g>
<g><path style="opacity:1" fill="#b0b3b5" d="M 216.5,60.5 C 216.5,60.1667 216.5,59.8333 216.5,59.5C 218.5,59.5 220.5,59.5 222.5,59.5C 222.5,62.1667 222.5,64.8333 222.5,67.5C 224.5,67.5 226.5,67.5 228.5,67.5C 228.5,69.5 228.5,71.5 228.5,73.5C 226.5,73.5 224.5,73.5 222.5,73.5C 223.919,72.5489 225.585,72.2155 227.5,72.5C 227.5,71.1667 227.5,69.8333 227.5,68.5C 225.5,68.5 223.5,68.5 221.5,68.5C 221.5,65.8333 221.5,63.1667 221.5,60.5C 219.833,60.5 218.167,60.5 216.5,60.5 Z"/></g>
<g><path style="opacity:1" fill="#9b9ea0" d="M 343.5,62.5 C 344.495,74.3217 344.828,86.3217 344.5,98.5C 346.167,98.5 347.833,98.5 349.5,98.5C 349.172,86.3217 349.505,74.3217 350.5,62.5C 350.5,74.8333 350.5,87.1667 350.5,99.5C 348.167,99.5 345.833,99.5 343.5,99.5C 343.5,87.1667 343.5,74.8333 343.5,62.5 Z"/></g>
<g><path style="opacity:1" fill="#6c6f72" d="M 458.5,68.5 C 453.703,66.9927 449.036,67.3261 444.5,69.5C 446.332,67.1058 448.832,66.1058 452,66.5C 454.544,66.336 456.71,67.0027 458.5,68.5 Z"/></g>
<g><path style="opacity:1" fill="#8b8d90" d="M 180.5,67.5 C 178.194,67.9926 175.861,68.3259 173.5,68.5C 175.655,66.466 177.988,66.1326 180.5,67.5 Z"/></g>
<g><path style="opacity:1" fill="#9d9fa1" d="M 203.5,68.5 C 198.405,68.2213 193.405,68.5546 188.5,69.5C 190.571,68.1914 193.071,67.5248 196,67.5C 198.69,67.5029 201.19,67.8362 203.5,68.5 Z"/></g>
<g><path style="opacity:1" fill="#aeb0b2" d="M 305.5,68.5 C 301.102,68.2941 296.768,68.6274 292.5,69.5C 292.611,68.8826 292.944,68.3826 293.5,68C 297.689,67.1881 301.689,67.3547 305.5,68.5 Z"/></g>
<g><path style="opacity:1" fill="#afb1b3" d="M 397.5,68.5 C 393.102,68.2941 388.768,68.6274 384.5,69.5C 384.611,68.8826 384.944,68.3826 385.5,68C 389.689,67.1881 393.689,67.3547 397.5,68.5 Z"/></g>
<g><path style="opacity:1" fill="#74777a" d="M 429.5,68.5 C 431.607,67.5318 433.941,67.1984 436.5,67.5C 436.784,69.4147 436.451,71.0813 435.5,72.5C 435.5,71.1667 435.5,69.8333 435.5,68.5C 433.5,68.5 431.5,68.5 429.5,68.5 Z"/></g>
<g><path style="opacity:1" fill="#25292d" d="M 143.5,67.5 C 143.166,70.491 144.166,72.8243 146.5,74.5C 146.796,76.403 147.463,78.0697 148.5,79.5C 145.663,81.4023 142.329,82.069 138.5,81.5C 138.963,78.779 139.629,76.1123 140.5,73.5C 140.687,71.4357 141.187,69.4357 142,67.5C 142.69,66.2617 143.19,66.2617 143.5,67.5 Z"/></g>
<g><path style="opacity:1" fill="#f3f4f5" d="M 180.5,67.5 C 180.5,69.1667 180.5,70.8333 180.5,72.5C 177.99,72.0535 175.99,72.7202 174.5,74.5C 173.5,74.8333 172.833,75.5 172.5,76.5C 171.883,76.6107 171.383,76.944 171,77.5C 170.5,84.4921 170.334,91.4921 170.5,98.5C 168.833,98.5 167.167,98.5 165.5,98.5C 165.5,88.5 165.5,78.5 165.5,68.5C 168.079,68.0833 170.246,68.75 172,70.5C 172.717,69.9558 173.217,69.2891 173.5,68.5C 175.861,68.3259 178.194,67.9926 180.5,67.5 Z"/></g>
<g><path style="opacity:1" fill="#eeeff1" d="M 203.5,68.5 C 205.555,69.5588 206.889,71.2254 207.5,73.5C 207.5,81.8333 207.5,90.1667 207.5,98.5C 205.179,98.7711 203.179,98.1045 201.5,96.5C 200.261,96.9424 199.261,97.6091 198.5,98.5C 194.833,98.5 191.167,98.5 187.5,98.5C 182.431,94.9 181.264,90.2333 184,84.5C 184.816,83.1772 185.983,82.5106 187.5,82.5C 192.668,82.0662 197.668,81.3996 202.5,80.5C 203.145,77.4532 202.145,75.2865 199.5,74C 197.167,73.3333 194.833,73.3333 192.5,74C 190.574,74.4224 189.574,75.5891 189.5,77.5C 187.833,77.5 186.167,77.5 184.5,77.5C 184.5,76.1667 184.5,74.8333 184.5,73.5C 185.906,73.0269 186.573,72.0269 186.5,70.5C 187.167,70.1667 187.833,69.8333 188.5,69.5C 193.405,68.5546 198.405,68.2213 203.5,68.5 Z"/></g>
<g><path style="opacity:1" fill="#cacccd" d="M 248.5,57.5 C 248.5,71.1667 248.5,84.8333 248.5,98.5C 249.833,98.5 251.167,98.5 252.5,98.5C 252.173,88.3194 252.506,78.3194 253.5,68.5C 253.5,78.8333 253.5,89.1667 253.5,99.5C 251.5,99.5 249.5,99.5 247.5,99.5C 247.171,85.3234 247.504,71.3234 248.5,57.5 Z"/></g>
<g><path style="opacity:1" fill="#8d9092" d="M 260.5,66.5 C 261.906,66.9731 262.573,67.9731 262.5,69.5C 261.094,69.0269 260.427,68.0269 260.5,66.5 Z"/></g>
<g><path style="opacity:1" fill="#eeeff0" d="M 305.5,68.5 C 308.675,68.8399 310.841,70.5066 312,73.5C 312.5,82.1603 312.666,90.8269 312.5,99.5C 310.5,99.5 308.5,99.5 306.5,99.5C 306.649,98.448 306.483,97.448 306,96.5C 304.887,97.305 303.721,97.9717 302.5,98.5C 298.434,98.693 294.434,98.3597 290.5,97.5C 288.738,96.7377 287.738,95.4044 287.5,93.5C 287.704,90.4824 288.037,87.4824 288.5,84.5C 289.222,83.4489 290.222,82.7822 291.5,82.5C 296.668,82.0662 301.668,81.3996 306.5,80.5C 307.145,77.4532 306.145,75.2865 303.5,74C 301.167,73.3333 298.833,73.3333 296.5,74C 295.619,74.7083 294.953,75.5416 294.5,76.5C 292.396,76.7989 290.396,76.4656 288.5,75.5C 289.127,74.5832 289.461,73.5832 289.5,72.5C 290.167,71.1667 291.167,70.1667 292.5,69.5C 296.768,68.6274 301.102,68.2941 305.5,68.5 Z"/></g>
<g><path style="opacity:1" fill="#f1f2f3" d="M 367.5,69.5 C 367.56,70.0431 367.893,70.3764 368.5,70.5C 370.51,68.8287 372.843,68.162 375.5,68.5C 375.5,69.8333 375.5,71.1667 375.5,72.5C 373.302,72.1201 371.635,72.7868 370.5,74.5C 369.542,74.9528 368.708,75.6195 368,76.5C 367.5,84.1594 367.334,91.8261 367.5,99.5C 365.5,99.5 363.5,99.5 361.5,99.5C 361.5,89.1667 361.5,78.8333 361.5,68.5C 363.735,68.2053 365.735,68.5386 367.5,69.5 Z"/></g>
<g><path style="opacity:1" fill="#b8babc" d="M 370.5,74.5 C 371.635,72.7868 373.302,72.1201 375.5,72.5C 375.5,71.1667 375.5,69.8333 375.5,68.5C 372.843,68.162 370.51,68.8287 368.5,70.5C 367.893,70.3764 367.56,70.0431 367.5,69.5C 370.505,67.7006 373.838,67.0339 377.5,67.5C 377.5,69.5 377.5,71.5 377.5,73.5C 375.097,73.448 372.764,73.7814 370.5,74.5 Z"/></g>
<g><path style="opacity:1" fill="#eeeff0" d="M 397.5,68.5 C 400.675,68.8399 402.841,70.5066 404,73.5C 404.5,82.1603 404.666,90.8269 404.5,99.5C 402.5,99.5 400.5,99.5 398.5,99.5C 398.869,97.0065 398.203,96.3398 396.5,97.5C 391.833,98.8333 387.167,98.8333 382.5,97.5C 380.738,96.7377 379.738,95.4044 379.5,93.5C 379.704,90.4824 380.037,87.4824 380.5,84.5C 381.222,83.4489 382.222,82.7822 383.5,82.5C 388.668,82.0662 393.668,81.3996 398.5,80.5C 399.145,77.4532 398.145,75.2865 395.5,74C 393.167,73.3333 390.833,73.3333 388.5,74C 387.619,74.7083 386.953,75.5416 386.5,76.5C 384.396,76.7989 382.396,76.4656 380.5,75.5C 381.127,74.5832 381.461,73.5832 381.5,72.5C 382.167,71.1667 383.167,70.1667 384.5,69.5C 388.768,68.6274 393.102,68.2941 397.5,68.5 Z"/></g>
<g><path style="opacity:1" fill="#e8e9ea" d="M 420.5,85.5 C 420.5,86.8333 420.5,88.1667 420.5,89.5C 421.5,89.5 422.5,89.5 423.5,89.5C 423.5,88.5 423.5,87.5 423.5,86.5C 424.5,83.8333 425.5,81.1667 426.5,78.5C 427.674,77.4863 428.34,76.153 428.5,74.5C 428.833,72.5 429.167,70.5 429.5,68.5C 431.5,68.5 433.5,68.5 435.5,68.5C 435.5,69.8333 435.5,71.1667 435.5,72.5C 431.842,79.7033 429.176,87.37 427.5,95.5C 425.104,97.9515 422.104,98.9515 418.5,98.5C 415.164,88.4844 411.831,78.4844 408.5,68.5C 411.144,68.1601 413.477,68.8267 415.5,70.5C 417.031,75.6561 418.697,80.6561 420.5,85.5 Z"/></g>
<g><path style="opacity:1" fill="#eaebec" d="M 458.5,68.5 C 464.363,72.5752 466.696,78.2419 465.5,85.5C 458.5,85.5 451.5,85.5 444.5,85.5C 444.054,88.0101 444.72,90.0101 446.5,91.5C 446.5,92.1667 446.833,92.5 447.5,92.5C 448.492,94.0265 449.992,94.6932 452,94.5C 453.385,94.4857 454.551,94.1524 455.5,93.5C 456.795,92.5116 458.128,91.5116 459.5,90.5C 461.781,90.0773 463.448,90.744 464.5,92.5C 463.5,95.5 461.5,97.5 458.5,98.5C 454.167,98.5 449.833,98.5 445.5,98.5C 443.284,97.7974 441.451,96.4641 440,94.5C 436.441,86.6479 436.774,78.9812 441,71.5C 442.113,70.695 443.279,70.0283 444.5,69.5C 449.036,67.3261 453.703,66.9927 458.5,68.5 Z"/></g>
<g><path style="opacity:1" fill="#54575a" d="M 253.5,68.5 C 254.5,68.8333 255.167,69.5 255.5,70.5C 254.833,80.1667 254.167,89.8333 253.5,99.5C 253.5,89.1667 253.5,78.8333 253.5,68.5 Z"/></g>
<g><path style="opacity:1" fill="#949699" d="M 135.5,69.5 C 135.34,71.153 134.674,72.4863 133.5,73.5C 133.157,71.5168 133.824,70.1834 135.5,69.5 Z"/></g>
<g><path style="opacity:1" fill="#636669" d="M 143.5,67.5 C 145.065,69.5093 146.065,71.8427 146.5,74.5C 144.166,72.8243 143.166,70.491 143.5,67.5 Z"/></g>
<g><path style="opacity:1" fill="#a1a4a6" d="M 180.5,67.5 C 181.461,69.2646 181.795,71.2646 181.5,73.5C 179.097,73.448 176.764,73.7814 174.5,74.5C 175.99,72.7202 177.99,72.0535 180.5,72.5C 180.5,70.8333 180.5,69.1667 180.5,67.5 Z"/></g>
<g><path style="opacity:1" fill="#8f9294" d="M 186.5,70.5 C 186.573,72.0269 185.906,73.0269 184.5,73.5C 184.427,71.9731 185.094,70.9731 186.5,70.5 Z"/></g>
<g><path style="opacity:1" fill="#292d31" d="M 448.5,73.5 C 454.573,72.2618 458.239,74.5952 459.5,80.5C 454.5,80.5 449.5,80.5 444.5,80.5C 444.571,77.3477 445.905,75.0144 448.5,73.5 Z"/></g>
<g><path style="opacity:1" fill="#65686b" d="M 71.5,72.5 C 70.2642,74.0428 68.5976,75.0428 66.5,75.5C 64.4636,73.6554 62.1303,73.1554 59.5,74C 58.8906,75.9483 58.224,77.7816 57.5,79.5C 57.2436,77.2075 57.5769,75.0408 58.5,73C 62.9153,72.9396 67.2486,72.773 71.5,72.5 Z"/></g>
<g><path style="opacity:1" fill="#8f9194" d="M 289.5,72.5 C 289.461,73.5832 289.127,74.5832 288.5,75.5C 290.396,76.4656 292.396,76.7989 294.5,76.5C 294.03,77.6935 293.03,78.3601 291.5,78.5C 289.045,78.888 287.712,77.888 287.5,75.5C 287.453,73.9623 288.12,72.9623 289.5,72.5 Z"/></g>
<g><path style="opacity:1" fill="#919396" d="M 381.5,72.5 C 381.461,73.5832 381.127,74.5832 380.5,75.5C 382.396,76.4656 384.396,76.7989 386.5,76.5C 386.03,77.6935 385.03,78.3601 383.5,78.5C 381.045,78.888 379.712,77.888 379.5,75.5C 379.453,73.9623 380.12,72.9623 381.5,72.5 Z"/></g>
<g><path style="opacity:1" fill="#7c7e81" d="M 428.5,74.5 C 428.34,76.153 427.674,77.4863 426.5,78.5C 426.229,76.6203 426.896,75.287 428.5,74.5 Z"/></g>
<g><path style="opacity:1" fill="#989a9c" d="M 86.5,75.5 C 88.9674,75.7549 90.9674,76.7549 92.5,78.5C 90.0326,78.2451 88.0326,77.2451 86.5,75.5 Z"/></g>
<g><path style="opacity:1" fill="#717477" d="M 184.5,73.5 C 184.5,74.8333 184.5,76.1667 184.5,77.5C 186.167,77.5 187.833,77.5 189.5,77.5C 187.735,78.4614 185.735,78.7947 183.5,78.5C 183.216,76.5853 183.549,74.9187 184.5,73.5 Z"/></g>
<g><path style="opacity:1" fill="#c9cbcd" d="M 207.5,73.5 C 208.493,81.9839 208.826,90.6506 208.5,99.5C 205.119,99.5405 201.786,99.2071 198.5,98.5C 199.261,97.6091 200.261,96.9424 201.5,96.5C 203.179,98.1045 205.179,98.7711 207.5,98.5C 207.5,90.1667 207.5,81.8333 207.5,73.5 Z"/></g>
<g><path style="opacity:1" fill="#848789" d="M 153.5,75.5 C 154.924,77.5145 155.59,79.8478 155.5,82.5C 154.076,80.4855 153.41,78.1522 153.5,75.5 Z"/></g>
<g><path style="opacity:1" fill="#a1a3a6" d="M 165.5,68.5 C 165.5,78.5 165.5,88.5 165.5,98.5C 167.167,98.5 168.833,98.5 170.5,98.5C 170.334,91.4921 170.5,84.4921 171,77.5C 171.383,76.944 171.883,76.6107 172.5,76.5C 171.566,84.111 171.233,91.7777 171.5,99.5C 169.167,99.5 166.833,99.5 164.5,99.5C 164.172,88.9865 164.506,78.6532 165.5,68.5 Z"/></g>
<g><path style="opacity:1" fill="#bfc1c3" d="M 102.5,74.5 C 103.302,75.9516 103.802,77.6183 104,79.5C 105.518,80.1634 106.685,81.1634 107.5,82.5C 105.821,82.2852 104.821,82.9519 104.5,84.5C 102.326,84.2503 100.659,83.2503 99.5,81.5C 100.496,81.4142 101.329,81.7476 102,82.5C 102.497,79.854 102.664,77.1873 102.5,74.5 Z"/></g>
<g><path style="opacity:1" fill="#949698" d="M 140.5,73.5 C 139.629,76.1123 138.963,78.779 138.5,81.5C 142.329,82.069 145.663,81.4023 148.5,79.5C 149.404,80.209 149.737,81.209 149.5,82.5C 145.116,82.8256 140.783,82.4922 136.5,81.5C 137.284,78.4301 138.617,75.7634 140.5,73.5 Z"/></g>
<g><path style="opacity:1" fill="#b1b4b6" d="M 202.5,80.5 C 197.668,81.3996 192.668,82.0662 187.5,82.5C 187.918,81.7784 188.584,81.2784 189.5,81C 193.821,80.501 198.154,80.3343 202.5,80.5 Z"/></g>
<g><path style="opacity:1" fill="#afb1b3" d="M 306.5,80.5 C 301.668,81.3996 296.668,82.0662 291.5,82.5C 292.263,81.7321 293.263,81.2321 294.5,81C 298.486,80.5012 302.486,80.3345 306.5,80.5 Z"/></g>
<g><path style="opacity:1" fill="#b1b3b5" d="M 398.5,80.5 C 393.668,81.3996 388.668,82.0662 383.5,82.5C 384.263,81.7321 385.263,81.2321 386.5,81C 390.486,80.5012 394.486,80.3345 398.5,80.5 Z"/></g>
<g><path style="opacity:1" fill="#4b4e51" d="M 465.5,85.5 C 459.021,86.4907 452.354,86.824 445.5,86.5C 445.629,88.2161 445.962,89.8828 446.5,91.5C 444.72,90.0101 444.054,88.0101 444.5,85.5C 451.5,85.5 458.5,85.5 465.5,85.5 Z"/></g>
<g><path style="opacity:1" fill="#5b5f62" d="M 200.5,91.5 C 201.038,89.8828 201.371,88.2161 201.5,86.5C 197.802,86.5524 194.135,86.8857 190.5,87.5C 190.918,86.7784 191.584,86.2784 192.5,86C 195.817,85.5017 199.15,85.335 202.5,85.5C 202.946,88.0101 202.28,90.0101 200.5,91.5 Z"/></g>
<g><path style="opacity:1" fill="#2b2f33" d="M 200.5,91.5 C 195.825,95.8861 191.825,95.3861 188.5,90C 188.639,88.699 189.305,87.8656 190.5,87.5C 194.135,86.8857 197.802,86.5524 201.5,86.5C 201.371,88.2161 201.038,89.8828 200.5,91.5 Z"/></g>
<g><path style="opacity:1" fill="#5b5e61" d="M 306.5,86.5 C 302.466,86.5045 298.466,86.8379 294.5,87.5C 296.462,85.9827 298.795,85.3161 301.5,85.5C 303.369,85.5068 305.036,85.8401 306.5,86.5 Z"/></g>
<g><path style="opacity:1" fill="#2b2f33" d="M 306.5,86.5 C 305.657,90.9332 302.99,93.5998 298.5,94.5C 293.808,93.9377 292.474,91.6043 294.5,87.5C 298.466,86.8379 302.466,86.5045 306.5,86.5 Z"/></g>
<g><path style="opacity:1" fill="#5a5d60" d="M 398.5,86.5 C 394.466,86.5045 390.466,86.8379 386.5,87.5C 388.462,85.9827 390.795,85.3161 393.5,85.5C 395.369,85.5068 397.036,85.8401 398.5,86.5 Z"/></g>
<g><path style="opacity:1" fill="#2b2f33" d="M 398.5,86.5 C 397.657,90.9332 394.99,93.5998 390.5,94.5C 385.808,93.9377 384.474,91.6043 386.5,87.5C 390.466,86.8379 394.466,86.5045 398.5,86.5 Z"/></g>
<g><path style="opacity:1" fill="#a2a4a7" d="M 54.5,81.5 C 51.8075,84.5807 50.8075,88.2473 51.5,92.5C 54.3854,92.1936 57.0521,92.5269 59.5,93.5C 56.5,93.5 53.5,93.5 50.5,93.5C 50.335,90.1501 50.5017,86.8168 51,83.5C 51.8159,82.1772 52.9826,81.5106 54.5,81.5 Z"/></g>
<g><path style="opacity:1" fill="#848789" d="M 76.5,87.5 C 69.9319,87.4735 63.4319,88.1401 57,89.5C 55.9302,89.472 55.0968,89.1386 54.5,88.5C 59.7973,87.6175 65.1306,86.9508 70.5,86.5C 72.6965,86.5046 74.6965,86.838 76.5,87.5 Z"/></g>
<g><path style="opacity:1" fill="#929496" d="M 90.5,86.5 C 93.7273,86.6761 96.7273,87.3428 99.5,88.5C 96.8127,88.6641 94.146,88.4974 91.5,88C 90.944,87.6174 90.6107,87.1174 90.5,86.5 Z"/></g>
<g><path style="opacity:1" fill="#aaacaf" d="M 129.5,83.5 C 129.829,86.2282 129.163,88.5615 127.5,90.5C 127.41,87.8478 128.076,85.5145 129.5,83.5 Z"/></g>
<g><path style="opacity:1" fill="#6a6d70" d="M 151.5,88.5 C 146.156,88.334 140.823,88.5006 135.5,89C 134.934,89.9947 134.267,90.828 133.5,91.5C 133.33,90.1779 133.663,89.0113 134.5,88C 140.349,87.1816 146.015,87.3483 151.5,88.5 Z"/></g>
<g><path style="opacity:1" fill="#5e6164" d="M 420.5,85.5 C 421.268,86.2625 421.768,87.2625 422,88.5C 422.278,87.5842 422.778,86.9175 423.5,86.5C 423.5,87.5 423.5,88.5 423.5,89.5C 422.5,89.5 421.5,89.5 420.5,89.5C 420.5,88.1667 420.5,86.8333 420.5,85.5 Z"/></g>
<g><path style="opacity:1" fill="#9da0a2" d="M 288.5,84.5 C 288.037,87.4824 287.704,90.4824 287.5,93.5C 286.848,92.5514 286.514,91.3847 286.5,90C 286.393,87.7794 287.06,85.9461 288.5,84.5 Z"/></g>
<g><path style="opacity:1" fill="#a7a9ab" d="M 380.5,84.5 C 380.037,87.4824 379.704,90.4824 379.5,93.5C 378.848,92.5514 378.514,91.3847 378.5,90C 378.393,87.7794 379.06,85.9461 380.5,84.5 Z"/></g>
<g><path style="opacity:1" fill="#a2a4a6" d="M 459.5,90.5 C 461.265,89.5386 463.265,89.2053 465.5,89.5C 465.737,90.791 465.404,91.791 464.5,92.5C 463.448,90.744 461.781,90.0773 459.5,90.5 Z"/></g>
<g><path style="opacity:1" fill="#6c6f72" d="M 65.5,91.5 C 68.2869,90.5233 71.2869,90.19 74.5,90.5C 74.81,93.7131 74.4767,96.7131 73.5,99.5C 75.1667,92.5 72.5,89.8333 65.5,91.5 Z"/></g>
<g><path style="opacity:1" fill="#808285" d="M 157.5,88.5 C 159.104,89.287 159.771,90.6203 159.5,92.5C 158.326,91.4863 157.66,90.153 157.5,88.5 Z"/></g>
<g><path style="opacity:1" fill="#737678" d="M 76.5,87.5 C 78.0739,89.1016 78.7406,91.1016 78.5,93.5C 76.9261,91.8984 76.2594,89.8984 76.5,87.5 Z"/></g>
<g><path style="opacity:1" fill="#aaacae" d="M 109.5,83.5 C 110.479,86.6248 110.813,89.9581 110.5,93.5C 107.5,93.5 104.5,93.5 101.5,93.5C 103.948,92.5269 106.615,92.1936 109.5,92.5C 109.5,89.5 109.5,86.5 109.5,83.5 Z"/></g>
<g><path style="opacity:1" fill="#5f6265" d="M 447.5,92.5 C 450.096,93.2653 452.763,93.5987 455.5,93.5C 454.551,94.1524 453.385,94.4857 452,94.5C 449.992,94.6932 448.492,94.0265 447.5,92.5 Z"/></g>
<g><path style="opacity:1" fill="#575b5e" d="M 64.5,95.5 C 64.5824,97.2517 63.7491,98.2517 62,98.5C 60.9701,98.1639 60.4701,97.4972 60.5,96.5C 61.9587,96.5674 63.2921,96.2341 64.5,95.5 Z"/></g>
<g><path style="opacity:1" fill="#9a9d9f" d="M 84.5,90.5 C 83.9492,93.8067 83.6159,97.1401 83.5,100.5C 82.1353,97.041 82.4686,93.7076 84.5,90.5 Z"/></g>
<g><path style="opacity:1" fill="#aaacae" d="M 159.5,92.5 C 160.924,94.5145 161.59,96.8478 161.5,99.5C 158.612,100.01 156.279,99.3435 154.5,97.5C 156.279,99.3435 158.612,100.01 161.5,99.5C 161.59,96.8478 160.924,94.5145 159.5,92.5 Z"/></g>
<g><path style="opacity:1" fill="#bdbfc0" d="M 187.5,98.5 C 191.167,98.5 194.833,98.5 198.5,98.5C 194.801,101.065 191.135,101.065 187.5,98.5 Z"/></g>
<g><path style="opacity:1" fill="#bdbec0" d="M 227.5,94.5 C 228.461,96.2646 228.795,98.2646 228.5,100.5C 224.584,100.975 221.251,99.9745 218.5,97.5C 221.43,98.299 224.43,98.6323 227.5,98.5C 227.5,97.1667 227.5,95.8333 227.5,94.5 Z"/></g>
<g><path style="opacity:1" fill="#bec0c2" d="M 290.5,97.5 C 294.434,98.3597 298.434,98.693 302.5,98.5C 298.24,101.315 294.24,100.982 290.5,97.5 Z"/></g>
<g><path style="opacity:1" fill="#bcbec0" d="M 382.5,97.5 C 387.167,98.8333 391.833,98.8333 396.5,97.5C 396.389,98.1174 396.056,98.6174 395.5,99C 390.673,101.391 386.339,100.891 382.5,97.5 Z"/></g>
<g><path style="opacity:1" fill="#a0a3a4" d="M 427.5,95.5 C 427.461,96.5832 427.127,97.5832 426.5,98.5C 423.691,99.8003 421.024,99.8003 418.5,98.5C 422.104,98.9515 425.104,97.9515 427.5,95.5 Z"/></g>
<g><path style="opacity:1" fill="#bcbec0" d="M 445.5,98.5 C 449.833,98.5 454.167,98.5 458.5,98.5C 454.148,101.061 449.815,101.061 445.5,98.5 Z"/></g>
<g><path style="opacity:1" fill="#909395" d="M 77.5,101.5 C 79.6074,102.468 81.9407,102.802 84.5,102.5C 81.9759,103.8 79.3092,103.8 76.5,102.5C 76.6236,101.893 76.9569,101.56 77.5,101.5 Z"/></g>
</svg>
